<svg id="그룹_214" data-name="그룹 214" xmlns="http://www.w3.org/2000/svg" width="1920" height="953" viewBox="0 0 1920 953">
  <g id="그룹_202" data-name="그룹 202">
    <rect id="사각형_75" data-name="사각형 75" width="1920" height="953" fill="#3b1ea5"/>
    <g id="그룹_155" data-name="그룹 155" transform="translate(-302.127 342.421)">
      <g id="그룹_58" data-name="그룹 58" transform="translate(302.127 441.579)">
        <g id="그룹_57" data-name="그룹 57">
          <g id="그룹_56" data-name="그룹 56">
            <path id="패스_26" data-name="패스 26" d="M316.608,448.818a7.24,7.24,0,1,1-7.241-7.239A7.241,7.241,0,0,1,316.608,448.818Z" transform="translate(-302.127 -441.579)" fill="#ffe817"/>
          </g>
        </g>
      </g>
      <g id="그룹_61" data-name="그룹 61" transform="translate(330.57 441.579)">
        <g id="그룹_60" data-name="그룹 60">
          <g id="그룹_59" data-name="그룹 59">
            <path id="패스_27" data-name="패스 27" d="M330.475,448.818a7.239,7.239,0,1,1-7.239-7.239A7.239,7.239,0,0,1,330.475,448.818Z" transform="translate(-315.996 -441.579)" fill="#ffe817"/>
          </g>
        </g>
      </g>
      <g id="그룹_64" data-name="그룹 64" transform="translate(359.01 441.579)">
        <g id="그룹_63" data-name="그룹 63">
          <g id="그룹_62" data-name="그룹 62">
            <path id="패스_28" data-name="패스 28" d="M344.345,448.818a7.24,7.24,0,1,1-7.241-7.239A7.241,7.241,0,0,1,344.345,448.818Z" transform="translate(-329.864 -441.579)" fill="#ffe817"/>
          </g>
        </g>
      </g>
      <g id="그룹_67" data-name="그룹 67" transform="translate(387.453 441.579)">
        <g id="그룹_66" data-name="그룹 66">
          <g id="그룹_65" data-name="그룹 65">
            <path id="패스_29" data-name="패스 29" d="M358.212,448.818a7.239,7.239,0,1,1-7.239-7.239A7.24,7.24,0,0,1,358.212,448.818Z" transform="translate(-343.733 -441.579)" fill="#ffe817"/>
          </g>
        </g>
      </g>
      <g id="그룹_70" data-name="그룹 70" transform="translate(415.894 441.579)">
        <g id="그룹_69" data-name="그룹 69">
          <g id="그룹_68" data-name="그룹 68">
            <path id="패스_30" data-name="패스 30" d="M372.082,448.818a7.24,7.24,0,1,1-7.241-7.239A7.241,7.241,0,0,1,372.082,448.818Z" transform="translate(-357.601 -441.579)" fill="#ffe817"/>
          </g>
        </g>
      </g>
      <g id="그룹_73" data-name="그룹 73" transform="translate(444.336 441.579)">
        <g id="그룹_72" data-name="그룹 72">
          <g id="그룹_71" data-name="그룹 71">
            <path id="패스_31" data-name="패스 31" d="M385.949,448.818a7.239,7.239,0,1,1-7.239-7.239A7.24,7.24,0,0,1,385.949,448.818Z" transform="translate(-371.47 -441.579)" fill="#ffe817"/>
          </g>
        </g>
      </g>
      <g id="그룹_76" data-name="그룹 76" transform="translate(472.777 441.579)">
        <g id="그룹_75" data-name="그룹 75">
          <g id="그룹_74" data-name="그룹 74">
            <path id="패스_32" data-name="패스 32" d="M399.819,448.818a7.24,7.24,0,1,1-7.239-7.239A7.241,7.241,0,0,1,399.819,448.818Z" transform="translate(-385.338 -441.579)" fill="#ffe817"/>
          </g>
        </g>
      </g>
      <g id="그룹_79" data-name="그룹 79" transform="translate(501.219 441.579)">
        <g id="그룹_78" data-name="그룹 78">
          <g id="그룹_77" data-name="그룹 77">
            <path id="패스_33" data-name="패스 33" d="M413.686,448.818a7.239,7.239,0,1,1-7.239-7.239A7.24,7.24,0,0,1,413.686,448.818Z" transform="translate(-399.207 -441.579)" fill="#ffe817"/>
          </g>
        </g>
      </g>
      <g id="그룹_82" data-name="그룹 82" transform="translate(529.66 441.579)">
        <g id="그룹_81" data-name="그룹 81">
          <g id="그룹_80" data-name="그룹 80">
            <path id="패스_34" data-name="패스 34" d="M427.556,448.818a7.24,7.24,0,1,1-7.241-7.239A7.241,7.241,0,0,1,427.556,448.818Z" transform="translate(-413.075 -441.579)" fill="#ffe817"/>
          </g>
        </g>
      </g>
      <g id="그룹_85" data-name="그룹 85" transform="translate(558.103 441.579)">
        <g id="그룹_84" data-name="그룹 84">
          <g id="그룹_83" data-name="그룹 83">
            <path id="패스_35" data-name="패스 35" d="M441.423,448.818a7.239,7.239,0,1,1-7.239-7.239A7.239,7.239,0,0,1,441.423,448.818Z" transform="translate(-426.944 -441.579)" fill="#ffe817"/>
          </g>
        </g>
      </g>
      <g id="그룹_88" data-name="그룹 88" transform="translate(586.543 441.579)">
        <g id="그룹_87" data-name="그룹 87">
          <g id="그룹_86" data-name="그룹 86">
            <path id="패스_36" data-name="패스 36" d="M455.293,448.818a7.24,7.24,0,1,1-7.239-7.239A7.241,7.241,0,0,1,455.293,448.818Z" transform="translate(-440.812 -441.579)" fill="#ffe817"/>
          </g>
        </g>
      </g>
      <g id="그룹_91" data-name="그룹 91" transform="translate(302.127 473.09)">
        <g id="그룹_90" data-name="그룹 90">
          <g id="그룹_89" data-name="그룹 89">
            <path id="패스_37" data-name="패스 37" d="M316.608,464.183a7.24,7.24,0,1,1-7.241-7.239A7.24,7.24,0,0,1,316.608,464.183Z" transform="translate(-302.127 -456.944)" fill="#ffe817"/>
          </g>
        </g>
      </g>
      <g id="그룹_94" data-name="그룹 94" transform="translate(330.57 473.09)">
        <g id="그룹_93" data-name="그룹 93">
          <g id="그룹_92" data-name="그룹 92">
            <path id="패스_38" data-name="패스 38" d="M330.475,464.183a7.239,7.239,0,1,1-7.239-7.239A7.238,7.238,0,0,1,330.475,464.183Z" transform="translate(-315.996 -456.944)" fill="#ffe817"/>
          </g>
        </g>
      </g>
      <g id="그룹_97" data-name="그룹 97" transform="translate(359.01 473.09)">
        <g id="그룹_96" data-name="그룹 96">
          <g id="그룹_95" data-name="그룹 95">
            <path id="패스_39" data-name="패스 39" d="M344.345,464.183a7.24,7.24,0,1,1-7.241-7.239A7.24,7.24,0,0,1,344.345,464.183Z" transform="translate(-329.864 -456.944)" fill="#ffe817"/>
          </g>
        </g>
      </g>
      <g id="그룹_100" data-name="그룹 100" transform="translate(387.453 473.09)">
        <g id="그룹_99" data-name="그룹 99">
          <g id="그룹_98" data-name="그룹 98">
            <path id="패스_40" data-name="패스 40" d="M358.212,464.183a7.239,7.239,0,1,1-7.239-7.239A7.238,7.238,0,0,1,358.212,464.183Z" transform="translate(-343.733 -456.944)" fill="#ffe817"/>
          </g>
        </g>
      </g>
      <g id="그룹_103" data-name="그룹 103" transform="translate(415.894 473.09)">
        <g id="그룹_102" data-name="그룹 102">
          <g id="그룹_101" data-name="그룹 101">
            <path id="패스_41" data-name="패스 41" d="M372.082,464.183a7.24,7.24,0,1,1-7.241-7.239A7.24,7.24,0,0,1,372.082,464.183Z" transform="translate(-357.601 -456.944)" fill="#ffe817"/>
          </g>
        </g>
      </g>
      <g id="그룹_106" data-name="그룹 106" transform="translate(444.336 473.09)">
        <g id="그룹_105" data-name="그룹 105">
          <g id="그룹_104" data-name="그룹 104">
            <path id="패스_42" data-name="패스 42" d="M385.949,464.183a7.239,7.239,0,1,1-7.239-7.239A7.238,7.238,0,0,1,385.949,464.183Z" transform="translate(-371.47 -456.944)" fill="#ffe817"/>
          </g>
        </g>
      </g>
      <g id="그룹_109" data-name="그룹 109" transform="translate(472.777 473.09)">
        <g id="그룹_108" data-name="그룹 108">
          <g id="그룹_107" data-name="그룹 107">
            <path id="패스_43" data-name="패스 43" d="M399.819,464.183a7.24,7.24,0,1,1-7.239-7.239A7.24,7.24,0,0,1,399.819,464.183Z" transform="translate(-385.338 -456.944)" fill="#ffe817"/>
          </g>
        </g>
      </g>
      <g id="그룹_112" data-name="그룹 112" transform="translate(501.219 473.09)">
        <g id="그룹_111" data-name="그룹 111">
          <g id="그룹_110" data-name="그룹 110">
            <path id="패스_44" data-name="패스 44" d="M413.686,464.183a7.239,7.239,0,1,1-7.239-7.239A7.238,7.238,0,0,1,413.686,464.183Z" transform="translate(-399.207 -456.944)" fill="#ffe817"/>
          </g>
        </g>
      </g>
      <g id="그룹_115" data-name="그룹 115" transform="translate(529.66 473.09)">
        <g id="그룹_114" data-name="그룹 114">
          <g id="그룹_113" data-name="그룹 113">
            <path id="패스_45" data-name="패스 45" d="M427.556,464.183a7.24,7.24,0,1,1-7.241-7.239A7.24,7.24,0,0,1,427.556,464.183Z" transform="translate(-413.075 -456.944)" fill="#ffe817"/>
          </g>
        </g>
      </g>
      <g id="그룹_118" data-name="그룹 118" transform="translate(558.103 473.09)">
        <g id="그룹_117" data-name="그룹 117">
          <g id="그룹_116" data-name="그룹 116">
            <path id="패스_46" data-name="패스 46" d="M441.423,464.183a7.239,7.239,0,1,1-7.239-7.239A7.238,7.238,0,0,1,441.423,464.183Z" transform="translate(-426.944 -456.944)" fill="#ffe817"/>
          </g>
        </g>
      </g>
      <g id="그룹_121" data-name="그룹 121" transform="translate(586.543 473.09)">
        <g id="그룹_120" data-name="그룹 120">
          <g id="그룹_119" data-name="그룹 119">
            <path id="패스_47" data-name="패스 47" d="M455.293,464.183a7.24,7.24,0,1,1-7.239-7.239A7.24,7.24,0,0,1,455.293,464.183Z" transform="translate(-440.812 -456.944)" fill="#ffe817"/>
          </g>
        </g>
      </g>
      <g id="그룹_124" data-name="그룹 124" transform="translate(302.127 504.6)">
        <g id="그룹_123" data-name="그룹 123">
          <g id="그룹_122" data-name="그룹 122">
            <path id="패스_48" data-name="패스 48" d="M316.608,479.548a7.24,7.24,0,1,1-7.241-7.239A7.24,7.24,0,0,1,316.608,479.548Z" transform="translate(-302.127 -472.309)" fill="#ffe817"/>
          </g>
        </g>
      </g>
      <g id="그룹_127" data-name="그룹 127" transform="translate(330.57 504.6)">
        <g id="그룹_126" data-name="그룹 126">
          <g id="그룹_125" data-name="그룹 125">
            <path id="패스_49" data-name="패스 49" d="M330.475,479.548a7.239,7.239,0,1,1-7.239-7.239A7.238,7.238,0,0,1,330.475,479.548Z" transform="translate(-315.996 -472.309)" fill="#ffe817"/>
          </g>
        </g>
      </g>
      <g id="그룹_130" data-name="그룹 130" transform="translate(359.01 504.6)">
        <g id="그룹_129" data-name="그룹 129">
          <g id="그룹_128" data-name="그룹 128">
            <path id="패스_50" data-name="패스 50" d="M344.345,479.548a7.24,7.24,0,1,1-7.241-7.239A7.24,7.24,0,0,1,344.345,479.548Z" transform="translate(-329.864 -472.309)" fill="#ffe817"/>
          </g>
        </g>
      </g>
      <g id="그룹_133" data-name="그룹 133" transform="translate(387.453 504.6)">
        <g id="그룹_132" data-name="그룹 132">
          <g id="그룹_131" data-name="그룹 131">
            <path id="패스_51" data-name="패스 51" d="M358.212,479.548a7.239,7.239,0,1,1-7.239-7.239A7.238,7.238,0,0,1,358.212,479.548Z" transform="translate(-343.733 -472.309)" fill="#ffe817"/>
          </g>
        </g>
      </g>
      <g id="그룹_136" data-name="그룹 136" transform="translate(415.894 504.6)">
        <g id="그룹_135" data-name="그룹 135">
          <g id="그룹_134" data-name="그룹 134">
            <path id="패스_52" data-name="패스 52" d="M372.082,479.548a7.24,7.24,0,1,1-7.241-7.239A7.24,7.24,0,0,1,372.082,479.548Z" transform="translate(-357.601 -472.309)" fill="#ffe817"/>
          </g>
        </g>
      </g>
      <g id="그룹_139" data-name="그룹 139" transform="translate(444.336 504.6)">
        <g id="그룹_138" data-name="그룹 138">
          <g id="그룹_137" data-name="그룹 137">
            <path id="패스_53" data-name="패스 53" d="M385.949,479.548a7.239,7.239,0,1,1-7.239-7.239A7.238,7.238,0,0,1,385.949,479.548Z" transform="translate(-371.47 -472.309)" fill="#ffe817"/>
          </g>
        </g>
      </g>
      <g id="그룹_142" data-name="그룹 142" transform="translate(472.777 504.6)">
        <g id="그룹_141" data-name="그룹 141">
          <g id="그룹_140" data-name="그룹 140">
            <path id="패스_54" data-name="패스 54" d="M399.819,479.548a7.24,7.24,0,1,1-7.239-7.239A7.24,7.24,0,0,1,399.819,479.548Z" transform="translate(-385.338 -472.309)" fill="#ffe817"/>
          </g>
        </g>
      </g>
      <g id="그룹_145" data-name="그룹 145" transform="translate(501.219 504.6)">
        <g id="그룹_144" data-name="그룹 144">
          <g id="그룹_143" data-name="그룹 143">
            <path id="패스_55" data-name="패스 55" d="M413.686,479.548a7.239,7.239,0,1,1-7.239-7.239A7.238,7.238,0,0,1,413.686,479.548Z" transform="translate(-399.207 -472.309)" fill="#ffe817"/>
          </g>
        </g>
      </g>
      <g id="그룹_148" data-name="그룹 148" transform="translate(529.66 504.6)">
        <g id="그룹_147" data-name="그룹 147">
          <g id="그룹_146" data-name="그룹 146">
            <path id="패스_56" data-name="패스 56" d="M427.556,479.548a7.24,7.24,0,1,1-7.241-7.239A7.24,7.24,0,0,1,427.556,479.548Z" transform="translate(-413.075 -472.309)" fill="#ffe817"/>
          </g>
        </g>
      </g>
      <g id="그룹_151" data-name="그룹 151" transform="translate(558.103 504.6)">
        <g id="그룹_150" data-name="그룹 150">
          <g id="그룹_149" data-name="그룹 149">
            <path id="패스_57" data-name="패스 57" d="M441.423,479.548a7.239,7.239,0,1,1-7.239-7.239A7.238,7.238,0,0,1,441.423,479.548Z" transform="translate(-426.944 -472.309)" fill="#ffe817"/>
          </g>
        </g>
      </g>
      <g id="그룹_154" data-name="그룹 154" transform="translate(586.543 504.6)">
        <g id="그룹_153" data-name="그룹 153">
          <g id="그룹_152" data-name="그룹 152">
            <path id="패스_58" data-name="패스 58" d="M455.293,479.548a7.24,7.24,0,1,1-7.239-7.239A7.24,7.24,0,0,1,455.293,479.548Z" transform="translate(-440.812 -472.309)" fill="#ffe817"/>
          </g>
        </g>
      </g>
    </g>
    <g id="그룹_161" data-name="그룹 161">
      <rect id="사각형_121" data-name="사각형 121" width="19" height="19" transform="translate(285.25 242.464) rotate(31)" fill="#fff"/>
      <rect id="사각형_123" data-name="사각형 123" width="19" height="19" transform="translate(1800.25 817.464) rotate(31)" fill="#fff"/>
      <rect id="사각형_124" data-name="사각형 124" width="19" height="19" transform="translate(1781.25 394.928) rotate(31)" fill="#fff"/>
      <rect id="사각형_127" data-name="사각형 127" width="19" height="19" transform="translate(1829.75 118.428) rotate(31)" fill="#fff"/>
      <circle id="타원_32" data-name="타원 32" cx="6.5" cy="6.5" r="6.5" transform="translate(385 870)" fill="#fff"/>
      <circle id="타원_41" data-name="타원 41" cx="6.5" cy="6.5" r="6.5" transform="translate(1382 79)" fill="#fff"/>
      <circle id="타원_34" data-name="타원 34" cx="6.5" cy="6.5" r="6.5" transform="translate(398 86)" fill="#fff"/>
      <circle id="타원_36" data-name="타원 36" cx="6.5" cy="6.5" r="6.5" transform="translate(1561 203)" fill="#fff"/>
      <circle id="타원_43" data-name="타원 43" cx="6.5" cy="6.5" r="6.5" transform="translate(57 73)" fill="#fff"/>
      <circle id="타원_42" data-name="타원 42" cx="6.5" cy="6.5" r="6.5" transform="translate(191 388)" fill="#fff"/>
      <circle id="타원_37" data-name="타원 37" cx="6.5" cy="6.5" r="6.5" transform="translate(1736 578)" fill="#fff"/>
      <circle id="타원_39" data-name="타원 39" cx="6.5" cy="6.5" r="6.5" transform="translate(1421 804)" fill="#fff"/>
    </g>
    <g id="그룹_55" data-name="그룹 55" style="mix-blend-mode: lighten;isolation: isolate">
      <rect id="사각형_119" data-name="사각형 119" width="19" height="19" transform="translate(200.25 131.464) rotate(31)" fill="#18345e"/>
      <rect id="사각형_120" data-name="사각형 120" width="19" height="19" transform="translate(1629.25 131.464) rotate(31)" fill="#18345e"/>
      <rect id="사각형_126" data-name="사각형 126" width="19" height="19" transform="translate(226.786 542.928) rotate(31)" fill="#18345e"/>
      <rect id="사각형_122" data-name="사각형 122" width="19" height="19" transform="translate(80.25 678.464) rotate(31)" fill="#18345e"/>
      <rect id="사각형_125" data-name="사각형 125" width="19" height="19" transform="translate(1300.25 843.536) rotate(31)" fill="#18345e"/>
      <circle id="타원_31" data-name="타원 31" cx="6.5" cy="6.5" r="6.5" transform="translate(144 280)" fill="#18345e"/>
      <circle id="타원_38" data-name="타원 38" cx="6.5" cy="6.5" r="6.5" transform="translate(1653 569)" fill="#18345e"/>
      <circle id="타원_40" data-name="타원 40" cx="6.5" cy="6.5" r="6.5" transform="translate(1833 724)" fill="#18345e"/>
    </g>
  </g>
  <circle id="타원_68" data-name="타원 68" cx="195.5" cy="195.5" r="195.5" transform="translate(1081 285)" fill="none"/>
</svg>
